<svg id="Layer_1" data-name="Layer 1" xmlns="http://www.w3.org/2000/svg" viewBox="0 0 3953.11 317.42"><defs><style>.cls-1{fill:#fff;}</style></defs><title>softclones</title><path class="cls-1" d="M264.74,123.37a101.11,101.11,0,0,1,23.79,8.49,103.17,103.17,0,0,1,19.38,12.92q8.83,7.47,19,17V227.7h10.87q-21.75,28.55-48.26,45.88t-55.73,17.33H10.2l3.39-48.26v.68q0-3.39,6.12-9.51t9.52-6.12H246.05a5.54,5.54,0,0,1,4.08-1.36v-43.5H101.28q-36.7-4.76-60.16-22.77A245,245,0,0,1,0,120.31H233.14Q251.49,120.31,264.74,123.37ZM9.52,63.21a154,154,0,0,1,41.12-36.7q23.44-14.28,52.67-14.28H327.62l-3.4,48.26q-1.37,3.4-7.14,9.18t-8.49,5.78H16.31Z"/><path class="cls-1" d="M384,280l19-37.39V63.89q0-10.87,9.86-20.73a89.34,89.34,0,0,1,23.45-16.65A165.53,165.53,0,0,1,463.9,15.63q13.94-4.08,22.09-4.08H774.18v227q0,15.63-15.29,25.82a125.47,125.47,0,0,1-35.69,16,261.77,261.77,0,0,1-40.1,8.15q-19.71,2.39-27.87,2.38H405.78Zm284.8-55.74q6.79,0,15.63-5.44T693.3,206V78.17H487.35V224.3Z"/><path class="cls-1" d="M1148,23.11a165.78,165.78,0,0,1-17.34,18.69,144.57,144.57,0,0,1-21.07,16.31,115.25,115.25,0,0,1-23.79,11.56,76.28,76.28,0,0,1-25.49,4.42H831.27L834,25.83q.69-3.41,6.46-9.18t9.18-5.77H1141.9Zm0,108.75a211,211,0,0,1-41.47,35.35,93.33,93.33,0,0,1-52.33,15.63H908.76v119q0,11.55-16.31,15.63a106.25,106.25,0,0,1-18-11.89,173.9,173.9,0,0,1-19-17.68,100.11,100.11,0,0,1-15.29-21.41A49,49,0,0,1,834,243.33V134.58a9.1,9.1,0,0,1,1.7-4.08,23.44,23.44,0,0,1,4.42-5.1q2.71-2.37,5.1-4.41a7,7,0,0,1,4.42-2H1141.9Z"/><path class="cls-1" d="M1195.59,59.13a136,136,0,0,1,39.76-34.66A99.26,99.26,0,0,1,1286,10.88h131.86q26.51,0,52.68,17.33a199.73,199.73,0,0,1,46.56,43.16H1385.22V303.15q0,9.51-14.27,14.27a112.54,112.54,0,0,1-19-11.55,124.39,124.39,0,0,1-19-17.34,100.28,100.28,0,0,1-14.62-21.07,49.2,49.2,0,0,1-5.77-22.77V71.37H1201.7Z"/><path class="cls-1" d="M1923.54,242.65q-3.39,9.53-13.93,18.36a137.73,137.73,0,0,1-23.11,15.63,132,132,0,0,1-25.15,10.53q-12.57,3.75-19.37,3.74H1553.79v-227q0-15.63,15.29-25.83a125.67,125.67,0,0,1,35.68-16,263.15,263.15,0,0,1,40.11-8.16q19.71-2.37,27.86-2.38h249.45l21.75,10.88-29.22,55.74H1659.14q-6.8,0-15.63,5.43t-8.84,12.92V225h291.59a9,9,0,0,1-.34,2,14.68,14.68,0,0,0-.34,3.4h10.2Z"/><path class="cls-1" d="M1999,290.91q0-10.19,3.4-17.33a73.6,73.6,0,0,1,7.47-12.57V4.76l23.79.68h10.2a78.15,78.15,0,0,1,15.29,1.7q8.51,1.69,30.93,5.77V225l235.18,12.24,2,9.51q0,11.57-10.19,20a89.22,89.22,0,0,1-23.45,13.94,130.44,130.44,0,0,1-26.51,7.81q-13.24,2.39-20.05,2.38Z"/><path class="cls-1" d="M2381.65,280l19-37.39V63.89q0-10.87,9.86-20.73A89.34,89.34,0,0,1,2434,26.51a165.53,165.53,0,0,1,27.53-10.88q13.93-4.08,22.09-4.08H2771.8v227q0,15.63-15.29,25.82a125.47,125.47,0,0,1-35.69,16,261.77,261.77,0,0,1-40.1,8.15q-19.71,2.39-27.87,2.38H2403.4Zm284.8-55.74q6.8,0,15.63-5.44t8.84-12.91V78.17H2485V224.3Z"/><path class="cls-1" d="M2848.61,209.35q-.69-8.83-1.7-31.95t-2-48.94q-1-25.83-1.7-49.61t-.68-35.35l-14.95-23.11,13.59-12.91h68c2.27,0,5.66,1.81,10.2,5.43s9.28,7.48,14.27,11.56a83.61,83.61,0,0,0,6.8,6.12q3.39,2.72,5.43,4.07l169.93,153.62h10.2V0l23.78.68a139.86,139.86,0,0,1,23.79,2.38q13.61,2.37,20.4,3.74h-.68c2.26,0,3.73.22,4.41.68s2.61,2,5.78,4.75V295.67q-6.12,0-17-.34t-22.09-1.7q-11.22-1.36-20.39-3.4t-11.9-5.44v.68L2936.29,117.59a24.62,24.62,0,0,0-4.76-4.08,5.31,5.31,0,0,0-2-.68h-2.72V316.74q-17.67,0-31.6-12.57A126,126,0,0,1,2871,274.26a175.56,175.56,0,0,1-16-35.34Q2849.29,220.91,2848.61,209.35Z"/><path class="cls-1" d="M3571.81,12.23l5.43,10.88a137.71,137.71,0,0,1-17.33,19.37,165.08,165.08,0,0,1-21.07,16.65A106.32,106.32,0,0,1,3515.05,71a76.53,76.53,0,0,1-25.49,4.42H3260.5l2.72-48.26q.68-3.4,6.46-9.18t9.17-5.78Zm0,108.08,5.43,11.55a190.59,190.59,0,0,1-41.12,35.35,95,95,0,0,1-52.68,15.63H3260.5l2.72-48.26q.68-3.39,6.46-8.84t9.17-5.43Zm0,107.39,5.43,10.88A162.73,162.73,0,0,1,3535.78,276a96.38,96.38,0,0,1-52.34,15H3260.5l2.72-48.26q.68-3.39,6.46-9.17t9.17-5.78Z"/><path class="cls-1" d="M3886.5,120.65a101.42,101.42,0,0,1,22.09,8.15,99.48,99.48,0,0,1,18,11.9q8.16,6.8,17.67,15l7.48,6.8v76.13a154.47,154.47,0,0,1-41.12,37.72,96.37,96.37,0,0,1-52,14.61h-224.3l8.84-48.94v.68q.67-3.39,6.45-9.17c3.86-3.85,6.91-5.78,9.18-5.78h212.07a5.5,5.5,0,0,1,4.07-1.36v-43.5H3727.45a189.2,189.2,0,0,1-55.4-27.53q-26.16-18.69-50-37.72h235.17Q3874.27,117.59,3886.5,120.65ZM3634.33,63.21a154.13,154.13,0,0,1,41.12-36.7,98.06,98.06,0,0,1,52-14.28h225.66l-10.19,48.94V59.81a12.1,12.1,0,0,1-3.06,4.42c-1.59,1.59-3.17,3.29-4.76,5.1a23.18,23.18,0,0,1-5.1,4.42,10.58,10.58,0,0,1-3.4,1.7H3641.13Z"/></svg>